<?xml version="1.0" encoding="utf-8"?>
<!-- Generator: Adobe Illustrator 21.0.0, SVG Export Plug-In . SVG Version: 6.00 Build 0)  -->
<svg version="1.1" id="Calque_1" xmlns="http://www.w3.org/2000/svg" xmlns:xlink="http://www.w3.org/1999/xlink" x="0px" y="0px"
	 viewBox="0 0 398.8 367.3" style="enable-background:new 0 0 398.8 367.3;" xml:space="preserve">
<style type="text/css">
	.st0{fill:#FFFFFF;}
	.st1{fill:#67AA2F;}
	.st2{fill:#191919;}
</style>
<g>
	<path class="st0" d="M55.2,336.3c-8.2,0-15-6.7-15-15V47c0-8.2,6.7-15,15-15h259.4c8.3,0,15,6.7,15,15v274.4c0,8.2-6.7,15-15,15
		H55.2z"/>
	<path class="st1" d="M314.6,33.7c7.3,0,13.3,5.9,13.3,13.3v274.4c0,7.3-5.9,13.3-13.3,13.3H55.2c-7.3,0-13.3-5.9-13.3-13.3V47
		c0-7.3,6-13.3,13.3-13.3H314.6 M314.6,30.3H55.2c-9.2,0-16.6,7.5-16.6,16.7v274.4c0,9.2,7.5,16.6,16.6,16.6h259.4
		c9.2,0,16.7-7.5,16.7-16.6V47C331.3,37.8,323.8,30.3,314.6,30.3L314.6,30.3z"/>
</g>
<g>
	<path class="st1" d="M169.8,95.1c3.4,0.6,6.9,2.4,7.2,5.9l1.7,15.6c0.4,3.5-2.1,6.6-5.6,6.9l-15.6,1.7c-3.5,0.4-6-1.9-7.4-5.8
		l-8.2-21c-1.7-5,1.6-7.6,5.6-7L169.8,95.1z"/>
	<path class="st1" d="M218.5,107.2c0.1,3.4-0.9,7.3-4.2,8.4l-14.9,5c-3.3,1.1-6.9-0.7-8-4l-5-14.9c-1.1-3.3,0.6-6.3,4.1-8.5
		l18.8-12.4c4.5-2.7,7.7-0.1,8,4L218.5,107.2z"/>
	<path class="st1" d="M154.9,129.3c4.7-0.3,9.9,1,11.5,5.4l7.3,20.1c1.6,4.4-0.7,9.4-5.1,11l-20,7.3c-4.4,1.6-8.6-0.6-11.7-5.3
		l-17.6-25c-3.8-6-0.4-10.5,5.1-11L154.9,129.3z"/>
	<path class="st1" d="M222.2,168c-2.4,4-6.5,7.5-11.1,6.2l-20.6-5.7c-4.6-1.3-7.3-6-6-10.5l5.7-20.6c1.3-4.6,5.4-6.6,11-6.4
		l30.6,0.2c7.1,0.4,8.8,5.7,6,10.5L222.2,168z"/>
	<path class="st1" d="M245.1,235.8c-3.2,5.3-8.6,9.9-14.7,8.3l-27.3-7.5c-6-1.7-9.6-7.9-7.9-14l7.5-27.3c1.7-6,7.2-8.8,14.6-8.5
		l40.5,0.2c9.4,0.5,11.6,7.6,7.9,14L245.1,235.8z"/>
	<path class="st1" d="M159.2,177.1c7.2-0.4,15.3,1.7,17.7,8.7l10.9,31.4c2.4,7-1.3,14.6-8.3,17l-31.4,10.9c-7,2.4-13.3-1.1-18-8.5
		l-26.8-39.4c-5.8-9.4-0.4-16.3,8.3-17L159.2,177.1z"/>
	<path class="st1" d="M183.6,67.8c2.1,2,3.7,5,2.3,7.6l-6.2,11.8c-1.4,2.6-4.6,3.6-7.3,2.2l-11.8-6.3c-2.6-1.4-3.3-4.2-2.5-7.6
		l4.2-18.7c1.2-4.3,4.7-4.6,7.2-2.2L183.6,67.8z"/>
</g>
<g>
	<polygon class="st1" points="286.3,325 266.5,266.9 283.2,266.9 293.9,299.1 347.6,194.8 364.8,194.8 299.1,325 	"/>
	<path class="st0" d="M357.1,199.6l-60.9,120.7h-6.5l-16.6-48.6h6.6l13.3,39.6l57.5-111.7H357.1 M372.6,190.1h-15.4h-6.6h-5.8
		l-2.7,5.1l-47.2,91.7l-6.1-18.2l-2.2-6.5h-6.8h-6.6h-13.3l4.3,12.6l16.6,48.6l2.2,6.4h6.8h6.5h5.8l2.6-5.2l60.9-120.7L372.6,190.1
		L372.6,190.1z"/>
</g>
<g>
	<polyline class="st2" points="269.6,256.2 268,256.2 268,257.8 266.4,257.8 266.4,256.2 264.4,256.2 264.4,257.8 262.9,257.8 
		262.9,256.2 260.9,256.2 260.9,257.8 259.3,257.8 259.3,256.2 257.7,256.2 257.7,259.1 258.6,259.9 259.9,266.2 267.6,266.2 
		268.7,259.9 269.6,259.1 269.6,256.2 	"/>
</g>
<g>
	<path class="st2" d="M60.2,271.7h6.1v39.2c0,3.5,2.2,3.5,4.1,3.5h19.3v5.9H69.5c-4.6,0-9.3-1.2-9.3-8.7V271.7z"/>
	<path class="st2" d="M113,271.3c11.5,0,18.9,2.2,18.9,25c0,21.4-7,24.2-18.9,24.2c-11.9,0-19-2.1-19-24.2
		C93.9,273.5,101.8,271.3,113,271.3z M113,314.6c9.7,0,12.8-2.7,12.8-18.3c0-18.6-4.2-19-12.8-19c-8.4,0-12.9,0.4-12.9,19
		C100,312.3,103.1,314.6,113,314.6z"/>
	<path class="st2" d="M152.3,271.1c4.5,0,12.1,0.8,17.4,1.9v4.8c-0.4,0-9.9-0.9-16.8-0.9c-8.4,0-10.1,5.9-10.1,18.9
		c0,14.2,2.4,18.7,10.2,18.9c4.9,0.1,11.5-3.1,11.5-3.1v-12h-10v-4c2.7-0.9,6.3-1.7,11.6-1.7c1.4,0,2.9,0.1,4.5,0.2v26.1h-4.5
		l-1.4-3.3c-2.4,1.6-6.3,3.5-12.2,3.6c-13.7,0.2-15.8-10.9-15.8-24.9C136.7,282.2,139.1,271.1,152.3,271.1z"/>
	<path class="st2" d="M194.3,271.7h6.5l16.7,48.6h-6.9l-4-12.8h-18.4l-4.1,12.8h-7.1L194.3,271.7z M204.6,301.6l-7.2-21.2l-7.4,21.2
		H204.6z"/>
	<path class="st2" d="M220.3,271.7l13.3,39.6l13.9-39.6h6.6l-17.4,48.6h-6.5l-16.6-48.6H220.3z"/>
	<path class="st2" d="M260.6,271.7h6.1v48.6h-6.1V271.7z"/>
</g>
</svg>
