<?xml version="1.0" encoding="utf-8"?>
<!-- Generator: Adobe Illustrator 21.0.0, SVG Export Plug-In . SVG Version: 6.00 Build 0)  -->
<svg version="1.1" id="Calque_1" xmlns="http://www.w3.org/2000/svg" xmlns:xlink="http://www.w3.org/1999/xlink" x="0px" y="0px"
	 viewBox="0 0 212.6 42.5" style="enable-background:new 0 0 212.6 42.5;" xml:space="preserve">
<style type="text/css">
	.st0{fill:url(#SVGID_1_);}
	.st1{fill:#FAFAFA;}
	.st2{fill:url(#SVGID_2_);}
	.st3{fill:url(#SVGID_3_);}
	.st4{fill:url(#SVGID_4_);}
	.st5{fill:#191919;}
	.st6{fill:#FFFFFF;}
</style>
<g>
	<g>
		<g>
			
				<linearGradient id="SVGID_1_" gradientUnits="userSpaceOnUse" x1="-22.8842" y1="121.6188" x2="-20.8105" y2="82.0515" gradientTransform="matrix(0.9989 4.740000e-02 -4.740000e-02 0.9989 50.3255 -78.7742)">
				<stop  offset="0" style="stop-color:#67B9E2"/>
				<stop  offset="0.7841" style="stop-color:#1273AE"/>
			</linearGradient>
			<path class="st0" d="M25,41.8c-3.1,0-3.6-0.4-3.7-0.7c-0.1-0.2,0.1-0.5,1-1.1c4.5-2.8,10.3-22.9,10.3-24.5c0-0.6-0.2-1.1-0.6-1.5
				c-0.5-0.5-1.3-0.8-2.1-0.8c0,0-0.2-0.1-0.4-0.1c-3.4,0-22.3,4.9-24.2,5.4l0.1-13c0-1.3,1-2.3,2.3-2.3L40,3.6
				c1.3,0,2.3,2.4,2.3,3.7l-0.3,31c0,1.2-0.9,2.1-2.3,2.3c-0.1,0-0.5,0.1-1.1,0.1C35.7,41.1,29.2,41.8,25,41.8z"/>
			<path class="st1" d="M7.6,3.3l0,0.2L40,3.7c1.1,0,2.2,2.2,2.2,3.6l-0.3,31c0,1.2-0.9,2-2.3,2.2c-0.2,0-0.5,0.1-1.1,0.1
				c-2.8,0.3-9.3,1.1-13.6,1.1c-3.2,0-3.6-0.5-3.6-0.6c0-0.1,0-0.4,1-1c4.5-2.8,10.3-23,10.3-24.5c0-0.6-0.2-1.1-0.7-1.6
				c-0.5-0.5-1.3-0.9-2.1-0.9c-0.1,0-0.3-0.1-0.5-0.1c-3.3,0-21.6,4.8-24.1,5.4l0.1-8.3l0-4.5c0-1.2,1-2.2,2.2-2.2V3.3 M7.6,3.3
				c-1.3,0-2.4,1.1-2.4,2.4l0,4.5c0,1.3-0.1,8.6-0.1,8.6s20.8-5.5,24.3-5.5c0.2,0,0.4,0,0.4,0.1c1.3,0,2.6,1,2.6,2.3
				c0,1.3-5.8,21.6-10.2,24.4c-2.3,1.5-0.5,1.9,2.8,1.9c5.2,0,13.9-1.2,14.7-1.2c1.4-0.2,2.4-1.1,2.4-2.4l0.3-31
				c0-1.3-1.1-3.8-2.4-3.8L7.6,3.3C7.7,3.3,7.7,3.3,7.6,3.3L7.6,3.3z"/>
		</g>
		<g>
			
				<linearGradient id="SVGID_2_" gradientUnits="userSpaceOnUse" x1="-2.0909" y1="101.9394" x2="-40.7802" y2="101.9394" gradientTransform="matrix(0.9989 4.740000e-02 -4.740000e-02 0.9989 50.3255 -78.7742)">
				<stop  offset="0" style="stop-color:#67B9E2"/>
				<stop  offset="0.8649" style="stop-color:#1273AE"/>
			</linearGradient>
			<path class="st2" d="M7.5,40.4c-1.3,0-2.3-1.1-2.3-2.3L5.5,5.7c0-1.3,1.1-2.3,2.3-2.3l32.3,0.3c1.7,0.2,2.1,1.9,2.4,3.1
				c0.1,0.3,0.1,0.5,0.2,0.7l0.5,2.7c0.3,1.3,0.9,4.7,0.3,5.4c-0.1,0.1-0.1,0.1-0.2,0.1c-0.2,0-0.5-0.1-1-0.7
				c-1.3-1.4-3.7-2.1-7.2-2.1c-7.5,0-17.4,3.4-17.5,3.4c-1.3,0.3-2.5,1.7-2.5,3l-0.5,3.6l-0.2,17.5L7.5,40.4z"/>
			<path class="st1" d="M7.8,3.3l0,0.2l32.3,0.3c1.7,0.2,2.1,1.9,2.3,3c0.1,0.3,0.1,0.5,0.2,0.6l0.5,2.8c0.4,1.7,0.8,4.7,0.4,5.3
				c-0.1,0.1-0.1,0.1-0.2,0.1c-0.1,0-0.4-0.1-0.9-0.6c-1.3-1.4-3.8-2.2-7.2-2.2c-7.5,0-17.4,3.4-17.5,3.4c-1.4,0.3-2.5,1.7-2.6,3.1
				l-0.5,3.6l-0.2,17.4c-0.4,0-1.3,0-2.3,0l-4.5,0c-1.2,0-2.2-1-2.2-2.2L5.6,5.7c0-1.2,1-2.2,2.2-2.2L7.8,3.3 M7.8,3.3
				c-1.3,0-2.4,1.1-2.4,2.4L5.1,38c0,1.3,1.1,2.4,2.4,2.4l4.5,0c1.3,0,2.5,0,2.5,0l0.2-17.6l0.5-3.6c0.1-1.3,1.2-2.7,2.4-3
				c0,0,10-3.4,17.5-3.4c3,0,5.7,0.6,7.1,2.1c0.5,0.5,0.8,0.7,1,0.7c1.3,0,0-5.6,0-5.6l-0.5-2.7c-0.3-1-0.5-3.6-2.7-3.8L7.8,3.3
				C7.8,3.3,7.8,3.3,7.8,3.3L7.8,3.3z"/>
		</g>
		<g>
			
				<linearGradient id="SVGID_3_" gradientUnits="userSpaceOnUse" x1="-24.4054" y1="83.1844" x2="-38.0518" y2="120.6777" gradientTransform="matrix(0.9989 4.740000e-02 -4.740000e-02 0.9989 50.3255 -78.7742)">
				<stop  offset="0" style="stop-color:#67B9E2"/>
				<stop  offset="0.7523" style="stop-color:#1273AE"/>
			</linearGradient>
			<path class="st3" d="M7.4,40.1c-0.6,0-1.2-0.3-1.6-0.7c-0.4-0.4-0.7-1-0.7-1.6L5.4,5.5c0-1.4,1.3-2,2.4-2.3
				c1.8-0.5,6.4-1.6,9.2-1.6c1.3,0,2.1,0.2,2.4,0.6c0.1,0.2,0.1,0.6-0.1,0.9C15.1,12,15,20.3,15,26.3l0,0.9c0,1.5,1.1,3.1,2.9,3.1
				l2.6,0.2l2.8,0.1l-0.1,6.9c0,1.3-1,2.3-2.3,2.3L7.4,40.1z"/>
			<path class="st1" d="M17,1.7c1.6,0,2.1,0.3,2.3,0.6c0.1,0.2,0.1,0.5-0.1,0.8C15,12,14.9,20.3,14.9,26.3l0,0.9
				c0,1.6,1.1,3.2,3,3.2l2.6,0.2l2.7,0.1c0,0.7,0,3,0,4.1l0,2.7c0,1.2-1,2.2-2.2,2.2L7.4,40c-0.6,0-1.1-0.2-1.6-0.7
				c-0.4-0.4-0.6-1-0.6-1.6L5.5,5.5c0-1.1,0.8-1.8,2.3-2.2C9.6,2.8,14.1,1.7,17,1.7 M17,1.5c-3,0-7.7,1.1-9.3,1.6
				C6.4,3.4,5.3,4.1,5.3,5.5L5,37.8c0,1.3,1.1,2.4,2.4,2.4l13.5-0.3c0,0,0,0,0,0c1.3,0,2.4-1.1,2.4-2.4l0-2.7c0-1.3,0-4.3,0-4.3
				l-2.9-0.1l-2.6-0.2c-1.8,0-2.8-1.5-2.8-3c0.1-6.1-0.1-14.8,4.4-24C20.1,1.9,18.9,1.5,17,1.5L17,1.5z"/>
		</g>
		<g>
			<g>
				
					<linearGradient id="SVGID_4_" gradientUnits="userSpaceOnUse" x1="-41.5418" y1="113.9271" x2="-16.8646" y2="113.9271" gradientTransform="matrix(0.9989 4.740000e-02 -4.740000e-02 0.9989 50.3255 -78.7742)">
					<stop  offset="0" style="stop-color:#67B9E2"/>
					<stop  offset="1" style="stop-color:#1273AE"/>
				</linearGradient>
				<path class="st4" d="M13.4,40.5c-3.2,0-6-0.2-6.1-0.2c-1.1,0-1.9-0.8-2.3-2.4l-0.5-2c0-0.2-0.1-0.5-0.1-1.1
					C4.1,32.5,3.2,27,4,26.1C4,26.1,4.1,26,4.2,26c0.1,0,0.3,0.1,0.6,0.4c3.7,4,14.8,4.1,20.8,4.2c1.1,0,2-0.6,2.7-1.7
					c-1.9,5.2-4,9.8-6.2,10.7C20.9,40.2,17.9,40.5,13.4,40.5z"/>
				<path class="st1" d="M4.2,26.1C4.2,26.1,4.2,26.1,4.2,26.1c0.1,0,0.2,0,0.5,0.4c3.7,4,14.9,4.1,20.9,4.2c0.9,0,1.7-0.4,2.4-1.2
					c-1.8,4.8-3.9,9.1-5.9,10c-1.3,0.5-4.3,0.8-8.7,0.8c-3.2,0-6-0.2-6.1-0.2c-1,0-1.8-0.8-2.2-2.3l-0.5-2c0-0.2-0.1-0.6-0.2-1.1
					c-0.3-2.1-1.2-7.8-0.4-8.7C4.1,26.1,4.2,26.1,4.2,26.1 M30.8,21.6l-2.1,6.3c-0.7,1.5-1.6,2.6-3.2,2.6c0,0,0,0,0,0
					c-6.1-0.1-17.1-0.2-20.7-4.1c-0.3-0.3-0.5-0.4-0.7-0.4c-1.4,0,0.2,8.9,0.3,10L5,38c0.4,1.3,1.1,2.4,2.4,2.4c0,0,2.8,0.2,6.1,0.2
					c3.4,0,7.2-0.2,8.8-0.9C25.4,38.3,28.6,29,30.8,21.6L30.8,21.6z"/>
			</g>
		</g>
	</g>
</g>
<g>
	<path class="st5" d="M59.9,8.9l8.5,25l7.1-25h4.3l-2.7,9.4l5.5,15.8L90,8.9h4.2l-9.4,31.2h-4.2L75.2,25l-4.8,15.1h-4.2L55.7,8.9
		H59.9z"/>
	<path class="st6" d="M97.7,8.9h13c3.5,0,7.8,1.4,7.8,9.2c0,9.1-4.5,9.7-7.8,9.6c-1.7,0-8.9-0.7-9.1-0.9v13.2h-3.9V8.9z M110.5,23.9
		c2.1,0,3.9-0.7,3.9-5.9c-0.1-5.1-2.5-5.4-3.9-5.4h-8.9v11.3H110.5z"/>
	<path class="st6" d="M122.6,8.9H136c4.3,0,7.6,2.3,7.6,9.5c0,8-4,8.7-5.3,9l6.4,12.7h-4.3l-6.2-12.5l-7.6-0.6v13.1h-3.9V8.9z
		 M135.9,23.6c2,0,3.8-0.2,3.8-5.3c0-5-1.9-5.7-3.8-5.7h-9.3v11H135.9z"/>
	<path class="st6" d="M148.8,8.9h3.9v31.2h-3.9V8.9z"/>
	<path class="st6" d="M169.9,8.7c7.4,0,12.2,1.4,12.2,16c0,13.8-4.5,15.6-12.2,15.6c-7.7,0-12.2-1.4-12.2-15.6
		C157.6,10.1,162.7,8.7,169.9,8.7z M169.9,36.4c6.2,0,8.2-1.8,8.2-11.8c0-11.9-2.7-12.2-8.2-12.2c-5.4,0-8.3,0.3-8.3,12.2
		C161.6,35,163.5,36.4,169.9,36.4z"/>
	<path class="st6" d="M186.2,8.9h13c3.5,0,7.8,1.4,7.8,9.2c0,9.1-4.5,9.7-7.8,9.6c-1.7,0-8.9-0.7-9.1-0.9v13.2h-3.9V8.9z
		 M199.1,23.9c2.1,0,3.9-0.7,3.9-5.9c-0.1-5.1-2.5-5.4-3.9-5.4h-8.9v11.3H199.1z"/>
</g>
</svg>
