<?xml version="1.0" encoding="UTF-8"?>
<svg id="Calque_1" data-name="Calque 1" xmlns="http://www.w3.org/2000/svg" width="623.62" height="141.73" viewBox="0 0 623.62 141.73">
  <path d="m95.69,42.31c-.11-.56-.6-.97-1.17-.97h-35.33c-.08,0-.15.02-.22.04-4.3.05-8.57,1.03-12.55,2.98-7.04,3.45-12.32,9.43-14.85,16.82-2.53,7.4-2.03,15.35,1.42,22.39,3.45,7.04,9.43,12.32,16.83,14.85,3.07,1.05,6.25,1.58,9.47,1.58,12.55,0,23.71-7.97,27.77-19.83,1.29-3.78,1.78-7.71,1.5-11.58.05-1.89.12-4.86.12-6.2,0-15.87,6.22-18.7,6.29-18.73.53-.22.83-.79.72-1.36Z" style="fill: #00c389;"/>
  <path d="m60.72,77.91h-13.76l-2.28,6.13h-7.28l12.42-32.21h8.07l12.42,32.21h-7.33l-2.28-6.13Zm-6.88-18.62l-5,13.46h10l-5-13.46Z" style="fill: #fff;"/>
  <path d="m77.66,56.36c0-1.32-.81-2.04-2.07-2.04s-2.07.72-2.07,2.04v5.46h-3.29v-5.46c0-1.32-.81-2.04-2.07-2.04s-2.07.72-2.07,2.04v5.46h-3.31v-10.06h3.31v1.26c.64-.81,1.74-1.37,3.16-1.37,1.63,0,2.95.67,3.68,1.88.72-1.06,2.07-1.88,3.64-1.88,2.67,0,4.4,1.59,4.4,4.29v5.88h-3.29v-5.46Z" style="fill: #fff;"/>
  <g>
    <path d="m164.93,85.9h-21.13l-3.5,10.11h-11.17l19.08-53.13h12.39l19.08,53.13h-11.25l-3.5-10.11Zm-10.56-30.71l-7.68,22.19h15.35l-7.68-22.19Z" style="fill: #00c389;"/>
    <path d="m235.99,58.92h-12.24c-2.43-4.48-6.84-6.84-12.46-6.84-9.5,0-16.11,6.76-16.11,17.33s6.69,17.48,16.57,17.48c8.21,0,13.45-4.71,15.05-12.24h-18.24v-8.13h28.73v9.27c-2.13,10.79-11.78,20.67-25.92,20.67-15.43,0-27.13-11.17-27.13-27.06s11.7-27.13,27.06-27.13c11.86,0,21.28,6,24.7,16.65Z" style="fill: #00c389;"/>
    <path d="m265.09,42.96c12.77,0,19.15,7.37,19.15,16.26,0,6.46-3.57,13-12.08,15.28l12.69,21.51h-12.31l-11.71-20.67h-5.02v20.67h-10.64v-53.05h19.91Zm-.38,8.82h-8.89v15.58h8.89c5.93,0,8.59-3.12,8.59-7.9s-2.66-7.68-8.59-7.68Z" style="fill: #00c389;"/>
    <path d="m293.9,42.96h10.64v53.05h-10.64v-53.05Z" style="fill: #00c389;"/>
    <path d="m373.93,72.75c0-6.69-3.72-10.18-9.35-10.18s-9.42,3.5-9.42,10.18v23.26h-10.64v-23.26c0-6.69-3.72-10.18-9.35-10.18s-9.5,3.5-9.5,10.18v23.26h-10.64v-42.11h10.64v5.09c2.66-3.5,7.14-5.7,12.39-5.7,6.54,0,11.93,2.81,14.82,8.06,2.74-4.79,8.28-8.06,14.44-8.06,10.11,0,17.25,6.38,17.25,18.01v24.7h-10.64v-23.26Z" style="fill: #fff;"/>
    <path d="m411.16,53.22c6.76,0,11.4,3.19,13.91,6.69v-6h10.72v42.11h-10.72v-6.16c-2.51,3.65-7.3,6.84-13.98,6.84-10.64,0-19.15-8.74-19.15-21.89s8.51-21.58,19.23-21.58Zm2.74,9.35c-5.7,0-11.1,4.26-11.1,12.24s5.4,12.54,11.1,12.54,11.17-4.41,11.17-12.39-5.32-12.39-11.17-12.39Z" style="fill: #fff;"/>
    <path d="m456.84,96.01h-10.64v-42.11h10.64v6.54c2.66-4.33,7.07-7.14,12.92-7.14v11.17h-2.81c-6.31,0-10.11,2.43-10.11,10.56v20.98Z" style="fill: #fff;"/>
    <path d="m476.9,39.77h10.64v32l14.14-17.86h13.83l-18.54,21.13,18.7,20.98h-13.83l-14.29-17.94v17.94h-10.64v-56.24Z" style="fill: #fff;"/>
    <path d="m539.68,96.7c-12.24,0-21.13-8.51-21.13-21.74s8.67-21.74,21.13-21.74,20.75,8.28,20.75,20.82c0,1.37-.08,2.74-.3,4.1h-30.78c.53,6.23,4.79,9.73,10.11,9.73,4.56,0,7.07-2.28,8.44-5.09h11.48c-2.28,7.75-9.27,13.91-19.68,13.91Zm-10.26-25.69h19.99c-.15-5.55-4.56-9.04-10.03-9.04-5.09,0-9.12,3.27-9.96,9.04Z" style="fill: #fff;"/>
    <path d="m569.85,62.65h-5.02v-8.74h5.02v-10.41h10.72v10.41h9.42v8.74h-9.42v20.37c0,2.81,1.14,4.03,4.48,4.03h4.94v8.97h-6.69c-8.06,0-13.45-3.42-13.45-13.07v-20.29Z" style="fill: #fff;"/>
  </g>
  <path d="m82.73,68.69c0-.9-.6-1.68-1.47-1.92-.87-.24-1.78.13-2.25.9-1.28,2.12-3.14,3.8-5.38,4.85-.05.03-.11.05-.16.08-1.19.7-7.92,3.57-11.94,5.23-1.03.34-8.13,2.93-8.13,10.17v5.62c.01.9.61,1.68,1.48,1.92.18.05.36.07.53.07.69,0,1.34-.36,1.71-.97,1.28-2.12,3.14-3.8,5.38-4.85.06-.03.11-.05.16-.08,1.19-.7,7.92-3.56,11.94-5.23,1.05-.34,8.13-2.9,8.13-10.17v-5.62Z" style="fill: #00c389;"/>
  <path d="m80.73,68.69c-1.47,2.44-3.65,4.41-6.25,5.63-1.77,1.04-12.27,5.39-12.27,5.39,0,0-6.82,2.05-6.82,8.29v5.62c1.48-2.44,3.66-4.41,6.26-5.63,1.77-1.04,12.27-5.39,12.27-5.39,0,0,6.82-2.45,6.82-8.29v-5.62Z" style="fill: #fff;"/>
</svg>