<?xml version="1.0" encoding="UTF-8"?>
<svg id="Calque_1" data-name="Calque 1" xmlns="http://www.w3.org/2000/svg" width="15cm" height="5cm" xmlns:xlink="http://www.w3.org/1999/xlink" viewBox="0 0 425.2 141.73">
  <defs>
    <clipPath id="clippath">
      <rect x="4.98" y="3.18" width="414.33" height="136.44" style="fill: none;"/>
    </clipPath>
    <clipPath id="clippath-1">
      <rect x="4.98" y="3.18" width="414.33" height="136.44" style="fill: none;"/>
    </clipPath>
    <clipPath id="clippath-2">
      <rect x="4.98" y="3.18" width="414.33" height="136.44" style="fill: none;"/>
    </clipPath>
    <clipPath id="clippath-3">
      <rect x="4.98" y="3.18" width="414.33" height="136.44" style="fill: none;"/>
    </clipPath>
  </defs>
  <polygon points="94.34 98.88 90.57 98.88 90.57 97.37 99.84 97.37 99.84 98.88 96.05 98.88 96.05 112.67 94.34 112.67 94.34 98.88" style="fill: #fff;"/>
  <polygon points="105.64 97.37 114.12 97.37 114.12 98.88 107.34 98.88 107.34 104.19 114.08 104.19 114.08 105.7 107.34 105.7 107.34 111.16 114.12 111.16 114.12 112.67 105.64 112.67 105.64 97.37" style="fill: #fff;"/>
  <g style="clip-path: url(#clippath); fill: none;">
    <path d="m135.26,108.56c-.99,2.36-3.66,4.38-7.03,4.38-4.53,0-7.98-3.49-7.98-7.92s3.37-7.92,7.96-7.92c3.78,0,6.16,2.52,7.05,4.46h-1.84c-.52-.91-2.25-2.95-5.21-2.95-3.58,0-6.26,2.83-6.26,6.39s2.71,6.43,6.26,6.43c3.2,0,4.84-2.3,5.21-2.87h1.84Z" style="fill: #fff;"/>
  </g>
  <polygon points="141.64 112.67 141.64 97.37 143.34 97.37 143.34 104.17 150.72 104.17 150.72 97.37 152.44 97.37 152.44 112.67 150.72 112.67 150.72 105.68 143.34 105.68 143.34 112.67 141.64 112.67" style="fill: #fff;"/>
  <polygon points="170.34 110.15 170.31 97.37 171.97 97.37 171.97 112.67 170.31 112.67 161.24 99.79 161.28 112.67 159.63 112.67 159.63 97.37 161.36 97.37 170.34 110.15" style="fill: #fff;"/>
  <g style="clip-path: url(#clippath-1); fill: none;">
    <path d="m180.15,105.02c0,3.6,2.71,6.41,6.28,6.41s6.26-2.91,6.26-6.41-2.65-6.41-6.28-6.41-6.26,2.85-6.26,6.39v.02Zm-1.71.04c0-4.71,3.66-7.96,7.98-7.96s7.98,3.44,7.98,7.92-3.47,7.92-7.98,7.92-7.98-3.49-7.98-7.86v-.02Z" style="fill: #fff;"/>
  </g>
  <polygon points="200.9 97.37 202.62 97.37 202.62 111.16 208.45 111.16 208.45 112.67 200.9 112.67 200.9 97.37" style="fill: #fff;"/>
  <g style="clip-path: url(#clippath-2); fill: none;">
    <path d="m214.08,105.02c0,3.6,2.71,6.41,6.28,6.41s6.26-2.91,6.26-6.41-2.65-6.41-6.28-6.41-6.26,2.85-6.26,6.39v.02Zm-1.71.04c0-4.71,3.66-7.96,7.98-7.96s7.98,3.44,7.98,7.92-3.47,7.92-7.98,7.92-7.98-3.49-7.98-7.86v-.02Z" style="fill: #fff;"/>
    <path d="m247.34,101.34c-.48-.66-1.05-1.22-1.71-1.65-.99-.68-2.19-1.07-3.56-1.07-3.35,0-6.26,2.56-6.26,6.39s2.94,6.45,6.29,6.45c1.61,0,3.04-.56,4.09-1.38,1.07-.85,1.82-2.01,2.07-3.21h-7.61v-1.41h9.59c-.02.89-.23,2.01-.68,2.96-1.32,2.87-4.38,4.55-7.46,4.55-4.47,0-8-3.43-8-7.96s3.6-7.9,8.02-7.9c3.1,0,5.98,1.74,7.17,4.24h-1.94Z" style="fill: #fff;"/>
  </g>
  <polygon points="260.24 107.29 255.32 97.37 257.18 97.37 261.11 105.64 265.01 97.37 266.87 97.37 261.95 107.29 261.95 112.67 260.24 112.67 260.24 107.29" style="fill: #fff;"/>
  <polygon points="282.89 112.67 282.89 97.37 285.29 97.37 290.95 110.21 296.6 97.37 298.99 97.37 298.99 112.67 297.38 112.67 297.42 99.06 291.49 112.67 290.39 112.67 284.44 99.06 284.48 112.67 282.89 112.67" style="fill: #303ab2;"/>
  <path d="m311.97,99.29l-3.04,7.67h6.1l-3.06-7.67Zm-5.31,13.37h-1.84l6.39-15.3h1.65l6.33,15.3h-1.86l-1.78-4.3h-7.13l-1.76,4.3Z" style="fill: #303ab2;"/>
  <polygon points="325.34 97.37 327.03 97.37 327.03 104.77 333.26 97.37 335.12 97.37 328.71 105 335.76 112.67 333.63 112.67 327.03 105.41 327.03 112.67 325.34 112.67 325.34 97.37" style="fill: #303ab2;"/>
  <polygon points="341.4 97.37 349.88 97.37 349.88 98.88 343.1 98.88 343.1 104.19 349.83 104.19 349.83 105.7 343.1 105.7 343.1 111.16 349.88 111.16 349.88 112.67 341.4 112.67 341.4 97.37" style="fill: #303ab2;"/>
  <g style="clip-path: url(#clippath-3); fill: none;">
    <path d="m356.57,97.37h3.99c2.4,0,3.51.29,4.3.79,1.24.74,2.09,2.38,2.09,4.11.02,1.03-.27,2.13-.91,3-.91,1.24-2.01,1.53-3.41,1.68l3.8,5.72h-1.86l-4.32-6.68h.5c1.07,0,2.56-.02,3.39-.79.81-.78,1.16-1.71,1.16-2.81s-.56-2.34-1.51-2.96c-.76-.49-1.71-.56-3.1-.56h-2.4v13.79h-1.72v-15.3Z" style="fill: #303ab2;"/>
    <path d="m373.95,108.41c.25,2.54,2.11,3.08,3.06,3.08,1.59,0,3.06-1.22,3.06-2.92,0-2.15-1.84-2.62-3.62-3.2-1.24-.37-3.91-1.16-3.91-4.05-.04-2.71,2.21-4.22,4.55-4.22,1.9,0,4.09,1.06,4.34,3.95h-1.7c-.19-.99-.68-2.5-2.71-2.5-1.53,0-2.79,1.03-2.79,2.63-.02,1.86,1.49,2.31,3.8,3.1,1.44.56,3.72,1.36,3.72,4.17,0,2.5-1.88,4.49-4.74,4.49-2.56,0-4.69-1.61-4.8-4.53h1.72Z" style="fill: #303ab2;"/>
    <path d="m153.23,61.41c-1.03,1.87-2.42,3.32-4.16,4.32-1.74,1-3.63,1.51-5.63,1.51s-3.8-.52-5.51-1.54c-1.71-1.02-3.12-2.52-4.17-4.44-1.06-1.93-1.59-4.21-1.59-6.8s.53-4.84,1.59-6.72c1.05-1.87,2.44-3.31,4.12-4.28,1.69-.97,3.56-1.47,5.55-1.47s3.89.51,5.63,1.51c1.74.99,3.14,2.45,4.16,4.32,1.03,1.88,1.55,4.16,1.55,6.8s-.52,4.92-1.55,6.8m13.22-29.33h-11.26c-.22,0-.41.18-.41.4v5.16c-1.42-1.66-3.22-3.08-5.35-4.23-2.53-1.36-5.51-2.04-8.86-2.04-3.84,0-7.36.96-10.48,2.85-3.12,1.89-5.61,4.64-7.42,8.15-1.81,3.5-2.72,7.57-2.72,12.09s.91,8.68,2.72,12.21c1.81,3.54,4.31,6.32,7.42,8.27,3.11,1.95,6.61,2.94,10.4,2.94,3.35,0,6.36-.7,8.94-2.08,2.17-1.16,3.97-2.61,5.35-4.3v5.26c0,.22.18.4.41.4h11.26c.22,0,.4-.18.4-.4v-44.26c0-.22-.18-.4-.4-.4" style="fill: #fff;"/>
    <path d="m224.13,31.44c-2.81,0-5.44.57-7.8,1.68-2.01.94-3.73,2.21-5.14,3.77v-4.4c0-.22-.18-.4-.41-.4h-11.18c-.23,0-.41.18-.41.4v44.26c0,.22.18.41.41.41h11.18c.22,0,.41-.18.41-.41v-24.44c0-3.39.86-6.03,2.57-7.83,1.7-1.8,4.06-2.71,7.02-2.71s5.22.91,6.9,2.71c1.68,1.8,2.53,4.44,2.53,7.83v24.44c0,.22.18.41.4.41h11.19c.22,0,.4-.18.4-.41v-25.96c0-6.04-1.68-10.83-4.99-14.22-3.31-3.39-7.71-5.12-13.07-5.12" style="fill: #fff;"/>
    <path d="m285.02,61.29c-1.05,1.9-2.45,3.38-4.17,4.4-1.71,1.02-3.59,1.54-5.58,1.54s-3.8-.51-5.51-1.5c-1.71-1-3.11-2.46-4.16-4.36-1.05-1.9-1.59-4.17-1.59-6.76s.53-4.85,1.59-6.76c1.05-1.89,2.45-3.36,4.17-4.36,1.71-1,3.57-1.5,5.51-1.5s3.88.49,5.59,1.47c1.71.97,3.11,2.41,4.16,4.28,1.05,1.87,1.58,4.13,1.58,6.71s-.53,4.93-1.59,6.84m3.68-27.08c-3.12-1.89-6.64-2.85-10.48-2.85-3.3,0-6.28.69-8.86,2.04-2.17,1.14-3.97,2.59-5.36,4.32v-20.11c0-.22-.18-.4-.4-.4h-11.18c-.22,0-.4.18-.4.4v59.12c0,.22.18.4.4.4h11.18c.22,0,.4-.18.4-.4v-5.13c1.43,1.7,3.22,3.12,5.36,4.25,2.53,1.33,5.51,2,8.86,2,3.84,0,7.37-.99,10.48-2.94,3.11-1.95,5.61-4.73,7.42-8.27,1.8-3.53,2.72-7.63,2.72-12.21s-.92-8.65-2.72-12.13c-1.81-3.48-4.3-6.22-7.42-8.11" style="fill: #fff;"/>
    <path d="m335.87,61.61c-1.02,1.89-2.41,3.33-4.12,4.27-1.71.95-3.57,1.43-5.52,1.43-3.07,0-5.64-1.1-7.65-3.27-2.02-2.17-3.05-5.35-3.05-9.43s1.05-7.25,3.12-9.43c2.07-2.17,4.67-3.27,7.73-3.27s5.7,1.1,7.82,3.27c2.12,2.18,3.2,5.35,3.2,9.42,0,2.74-.52,5.1-1.55,7m2.47-27.37c-3.51-1.91-7.47-2.89-11.78-2.89s-8.27.97-11.78,2.89c-3.51,1.92-6.32,4.67-8.35,8.18-2.02,3.51-3.05,7.61-3.05,12.19s1,8.68,2.97,12.19c1.97,3.51,4.72,6.26,8.18,8.18,3.45,1.91,7.39,2.89,11.7,2.89s8.37-.97,11.9-2.89c3.54-1.92,6.39-4.67,8.46-8.18,2.08-3.51,3.13-7.61,3.13-12.19s-1.03-8.68-3.05-12.19c-2.03-3.51-4.83-6.26-8.35-8.18" style="fill: #fff;"/>
    <path d="m419.23,32.24c-.08-.1-.2-.16-.32-.16h-10.71c-.19,0-.35.13-.39.31l-7.45,32-7.9-32c-.05-.18-.21-.31-.39-.31h-11.82c-.19,0-.35.12-.39.3l-8.06,32.09-7.45-32.09c-.04-.18-.21-.31-.39-.31h-11.34c-.13,0-.25.06-.32.16-.08.1-.1.23-.07.36l13.02,44.26c.05.17.21.29.39.29h12.14c.18,0,.34-.12.39-.3l7.68-29.42,7.68,29.42c.05.18.21.3.39.3h12.06c.18,0,.34-.12.39-.29l12.94-44.26c.03-.12,0-.25-.07-.36" style="fill: #fff;"/>
    <path d="m80.83,64.99c-4.41,7.31-10.92,13.21-18.7,16.87-5.3,3.1-36.73,16.13-36.73,16.13,0,0-20.41,6.14-20.41,24.81l.03,16.82c4.41-7.31,10.92-13.21,18.7-16.87,5.3-3.1,36.73-16.13,36.73-16.13,0,0,20.42-6.01,20.42-24.81l-.03-16.82Z" style="fill: #fff;"/>
    <path d="m82.81,30.02l-6.69-9.44h0c-.11-.16-.24-.3-.36-.45-6.97-10.23-18.69-16.96-32-16.96C22.38,3.18,5.05,20.5,5.05,41.88s17.33,38.71,38.71,38.71c16.34,0,30.3-10.13,35.97-24.45,1.27-3.62,1.12-6.21.73-7.79-1.18-3.96-4.75-6.84-8.98-6.84h-14.47c.19,0,.36.14.39.32.04.19-.07.38-.24.45-.02,0-2.1.96-2.1,6.27,0,.45-.02,1.44-.04,2.07.09,1.3-.07,2.61-.5,3.88-1.36,3.97-5.09,6.64-9.3,6.64-.02,0-.03,0-.04,0-.47.03-.94.06-1.42.06-10.65,0-19.32-8.67-19.32-19.32s8.67-19.32,19.32-19.32c6.96,0,13.07,3.7,16.47,9.24h.02c.93,1.3,2.17,2.35,3.66,3.08,2.34,1.14,4.98,1.31,7.43.47.97-.33,1.86-.81,2.66-1.4.45-.31,1.53-1.05,1.96-1.37,4.3-3.12,6.29-1.99,6.31-1.98.16.1.38.07.51-.07.13-.14.14-.35.03-.51" style="fill: #303ab2;"/>
    <path d="m57.41,41.83c-.04-.19-.2-.33-.39-.33h-11.82s-.05,0-.07.01c-1.44.02-2.87.34-4.2,1-2.35,1.16-4.12,3.16-4.97,5.63-.85,2.48-.68,5.14.48,7.49,1.16,2.36,3.16,4.12,5.63,4.97,1.03.35,2.09.53,3.17.53,4.2,0,7.94-2.67,9.3-6.64.43-1.26.6-2.58.5-3.88.02-.63.04-1.62.04-2.07,0-5.31,2.08-6.26,2.1-6.27.18-.07.28-.26.24-.45" style="fill: #fff;"/>
    <path d="m188.81,32.68c-.11-.07-.25-.09-.37-.04-1.62.62-3.42.93-5.37.93s-3.86-.34-5.53-1c-.12-.05-.26-.03-.37.04-.11.07-.18.2-.18.34v43.79c0,.22.18.4.4.4h11.18c.22,0,.4-.18.4-.4v-43.72c0-.13-.07-.26-.17-.33" style="fill: #fff;"/>
    <path d="m189.95,21.32c0,3.8-3.08,6.88-6.88,6.88s-6.88-3.08-6.88-6.88,3.08-6.88,6.88-6.88,6.88,3.08,6.88,6.88" style="fill: #fff;"/>
    <path d="m115.72,31.44c-3.04,0-5.78.69-8.15,2.05-1.98,1.14-3.67,2.66-5.03,4.53h0s0,0,0,0c-.25-2.08-1.07-3.99-3.83-5.33-1.09-.53-2.47-.6-3.35-.61h-6.83c-.19,0-.35.14-.39.32-.04.19.06.38.24.46.02,0,2.1.95,2.1,6.27,0,.34.02.7.06,1.04v36.57c0,.22.18.41.4.41h11.18c.22,0,.4-.18.4-.41v-22.05c0-3.96.86-6.77,2.55-8.33,1.7-1.57,4.28-2.37,7.68-2.37h2.96c.22,0,.4-.18.4-.4v-11.74c0-.22-.18-.4-.4-.4" style="fill: #fff;"/>
  </g>
</svg>